<?xml version="1.0" encoding="UTF-8"?>
<svg id="Layer_1" data-name="Layer 1" xmlns="http://www.w3.org/2000/svg" viewBox="0 0 188 188">
  <defs>
    <style>
      .cls-1 {
        fill: #f07625;
        stroke: #f15b27;
      }

      .cls-1, .cls-2 {
        stroke-linecap: round;
        stroke-linejoin: round;
        stroke-width: 3px;
      }

      .cls-2 {
        fill: #754d25;
        stroke: #8d633a;
      }
    </style>
  </defs>
  <path class="cls-2" d="M79.34,37.61S82.87,15.23,115.22,1.5c0,0,25.71,1.02,28.03,22.54,0,0-13.93,8.55-16.67,22.72"/>
  <path class="cls-1" d="M143.15,49.59c-4.62,0-9.06,1.04-13.24,2.96-9.06-10.55-20.61-16.88-33.19-16.88-13.56,0-25.92,7.35-35.25,19.4-5.12-3.04-10.73-4.73-16.62-4.73C20.91,50.34,1.5,78.13,1.5,112.43s19.41,62.09,43.35,62.09c6.44,0,12.55-2.03,18.05-5.64,9.15,10.99,20.94,17.62,33.82,17.62s23.51-6,32.45-16.05c4.39,2.14,9.08,3.32,13.98,3.32,23.94,0,43.35-27.8,43.35-62.09s-19.41-62.09-43.35-62.09Z"/>
</svg>