<?xml version="1.0" encoding="UTF-8"?>
<svg id="Layer_1" data-name="Layer 1" xmlns="http://www.w3.org/2000/svg" viewBox="0 0 122 197">
  <defs>
    <style>
      .cls-1 {
        stroke: #f3f3f3;
      }

      .cls-1, .cls-2, .cls-3, .cls-4, .cls-5, .cls-6, .cls-7, .cls-8 {
        stroke-linecap: round;
        stroke-linejoin: round;
      }

      .cls-1, .cls-4, .cls-5, .cls-7 {
        fill: none;
      }

      .cls-2, .cls-3, .cls-5, .cls-8 {
        stroke: #010101;
      }

      .cls-2, .cls-8 {
        fill: #010101;
      }

      .cls-3 {
        fill: #7eb5e2;
      }

      .cls-3, .cls-7, .cls-8 {
        stroke-width: 2px;
      }

      .cls-4 {
        stroke: #fff;
      }

      .cls-6 {
        fill: #f79421;
        stroke: #f29441;
      }

      .cls-7 {
        stroke: #603a17;
      }
    </style>
  </defs>
  <ellipse class="cls-3" cx="73.93" cy="24.38" rx="26.25" ry="23.38"/>
  <ellipse class="cls-3" cx="56.11" cy="78.8" rx="39.38" ry="31.94"/>
  <path class="cls-3" d="M116.98,164.92c-2.09,4.22-6.59,3.84-11.47,10.35-4.62,6.2-2.5,9.12-6.86,13.9-3.8,4.17-10.12,7.1-16.05,6.8-7.6-.38-7.96-5.72-17.66-9.45-10.69-4.12-13.85,1-23.19-3.09-9.6-4.21-7.94-10.35-17.35-13.88-9.2-3.46-15.61,.99-19.69-3.25-3.83-3.98-1-12.25,1.02-16.07,.02-.05,.06-.11,.1-.16-.1-.13-.19-.27-.27-.42-1.81-2.96-2.78-6.15-2.78-9.46,0-16.15,23.26-29.23,51.97-29.23s51.98,13.08,51.98,29.23c0,.4-.01,.78-.05,1.17,.19,.16,.37,.33,.55,.5,5,4.82,13.33,15.79,9.74,23.04Z"/>
  <line class="cls-7" x1="95.15" y1="74.94" x2="113.27" y2="101.78"/>
  <ellipse class="cls-2" cx="58.7" cy="28.77" rx="3.45" ry="3.07"/>
  <ellipse class="cls-2" cx="88.4" cy="19.99" rx="3.45" ry="3.07"/>
  <path class="cls-5" d="M65.4,42.97c3.31-4.52,9.95-5.72,14.85-2.66"/>
  <polygon class="cls-6" points="72.61 23.28 81.2 32.27 73.93 30.73 72.61 23.28"/>
  <path class="cls-1" d="M56.25,16.36c.02,4.45,.82,5.56,1.56,5.76,1.47,.4,3.36-2.69,4.68-2.16,1.13,.45,.37,2.99,1.56,3.6,.86,.44,2.42-.28,4.68-2.16"/>
  <line class="cls-7" x1="113.27" y1="101.78" x2="113.27" y2="113.43"/>
  <line class="cls-7" x1="113.27" y1="101.78" x2="119.07" y2="117.32"/>
  <line class="cls-7" x1="113.27" y1="101.78" x2="121" y2="110.52"/>
  <line class="cls-7" x1="16.45" y1="75.62" x2="1" y2="67.94"/>
  <ellipse class="cls-8" cx="59.81" cy="89.34" rx="2.97" ry="2.74"/>
  <ellipse class="cls-8" cx="64.56" cy="127.75" rx="2.97" ry="2.74"/>
  <ellipse class="cls-8" cx="55.06" cy="150.79" rx="2.97" ry="2.74"/>
  <path class="cls-4" d="M29.21,78.14c4.6,7.91,7.85,8.87,9.97,8.29,4.23-1.17,6.02-9.09,9.98-9.83,3.41-.64,4.03,4.86,7.75,4.43,2.69-.31,6.02-3.58,9.98-9.83"/>
</svg>